<svg version="1.1" xmlns="http://www.w3.org/2000/svg" xmlns:xlink="http://www.w3.org/1999/xlink" width="77.29459" height="99.11673" viewBox="0,0,77.29459,99.11673"><g transform="translate(-201.29715,-130.44164)"><g data-paper-data="{&quot;isPaintingLayer&quot;:true}" fill-rule="nonzero" stroke="none" stroke-width="0" stroke-linecap="butt" stroke-linejoin="miter" stroke-miterlimit="10" stroke-dasharray="" stroke-dashoffset="0" style="mix-blend-mode: normal"><g><path d="M204.09812,205.49967c0,-10.95905 0,-23.7954 0,-29.46198c0,-5.39715 5.59592,-10.96517 10.84087,-10.96517c8.30047,0 36.96364,0 50.31149,0c6.08678,0 10.85041,5.77313 10.85041,10.95563c0,10.85338 0,23.56766 0,29.46198c0,4.95401 -5.77526,10.70704 -10.84087,10.70704c-14.66881,0 -42.5365,0 -50.32103,0c-5.26768,0 -10.84087,-5.39987 -10.84087,-10.6975z" fill="#000000"/><path d="M211.04397,199.88388c0,-8.82904 0,-13.7172 0,-18.28242c0,-4.34815 4.5083,-8.83396 8.73382,-8.83396c6.68718,0 29.77935,0 40.5329,0c4.90375,0 8.74151,4.65106 8.74151,8.82628c0,8.74391 0,13.53373 0,18.28242c0,3.99114 -4.65277,8.626 -8.73382,8.626c-11.81776,0 -34.26906,0 -40.54058,0c-4.24385,0 -8.73382,-4.35034 -8.73382,-8.61832z" fill="#f3cb17"/><path d="M211.04397,199.88388c0,-8.82904 0,-13.7172 0,-18.28242c0,-4.34815 4.5083,-8.83396 8.73383,-8.83396c2.10504,0 10.2953,0 10.2953,0v35.73471c0,0 -8.39885,0 -10.2953,0c-4.24385,0 -8.73383,-4.35034 -8.73383,-8.61832z" fill="#50be41"/><path d="M260.42121,208.5022c-1.89645,0 -10.29531,0 -10.29531,0v-35.73471c0,0 8.19026,0 10.29531,0c4.4073,0 8.73382,4.30404 8.73382,8.83396c0,4.56522 0,9.45338 0,18.28242c0,4.26798 -4.48997,8.61832 -8.73382,8.61832z" data-paper-data="{&quot;index&quot;:null}" fill="#4b88db"/><path d="M214.00681,222.70942c0.03943,-4.29214 0,-9.13782 0,-9.13782h19.35979c0,0 -0.0002,8.08062 0,12.13213c0.00027,5.55068 -19.43845,5.56826 -19.35979,-2.99431z" fill="#000000"/><path d="M246.7031,225.70374c0.0002,-4.05151 0,-12.13213 0,-12.13213h19.35979c0,0 -0.03943,4.84568 0,9.13782c0.07866,8.56257 -19.36006,8.545 -19.35979,2.99431z" data-paper-data="{&quot;index&quot;:null}" fill="#000000"/><path d="M222.51645,168.88058c0,0 -1.30834,-4.46859 -4.7366,-9.23961c-3.28922,-4.57753 -5.58862,-5.90404 -5.58862,-5.90404c0,0 -4.056,-0.25398 -7.29149,-3.32052c-2.49736,-2.36695 -3.57748,-4.82724 -3.60222,-8.01527c-0.05518,-7.11124 6.00057,-11.9535 11.91829,-11.95949c6.45979,-0.00655 8.97997,4.63483 8.97997,4.63483c0,0 -0.86868,0.76521 -1.57219,1.45628c-0.82327,0.80872 -1.73194,1.81177 -1.73194,1.81177l5.20358,5.84391c0,0 -0.07939,1.61815 -1.12976,3.48729c-0.88653,1.57759 -2.68616,2.96365 -2.68616,2.96365l9.12061,18.24122z" fill="#000000"/><g fill="#50be41"><path d="M243.27283,157.8694c0,1.8995 -1.53985,3.43935 -3.43935,3.43935c-1.8995,0 -3.43935,-1.53985 -3.43935,-3.43935c0,-1.8995 1.53985,-3.43935 3.43935,-3.43935c1.8995,0 3.43935,1.53985 3.43935,3.43935z"/><path d="M233.5193,152.13018l-3.76342,-4.19809c0,0 3.03297,-4.3909 10.0358,-4.33238c7.00283,0.05853 10.03579,4.5656 10.03579,4.5656l-4.13976,3.96487c0,0 -1.44402,-2.73421 -5.77058,-2.80756c-4.32656,-0.07335 -6.39782,2.80756 -6.39782,2.80756z"/><path d="M226.46045,143.59976l-4.60776,-5.18379c0,0 6.76488,-7.94592 18.22521,-7.93903c11.0788,0.00666 17.72341,8.32459 17.72341,8.32459l-4.67965,4.79823c0,0 -3.56419,-6.09219 -13.04376,-6.12746c-9.48087,-0.03527 -13.61745,6.12746 -13.61745,6.12746z"/></g><path d="M250.48896,168.88058l9.12061,-18.24122c0,0 -1.79963,-1.38606 -2.68616,-2.96365c-1.05037,-1.86913 -1.12975,-3.48729 -1.12975,-3.48729l5.20358,-5.84391c0,0 -0.90867,-1.00305 -1.73194,-1.81177c-0.7035,-0.69107 -1.57219,-1.45628 -1.57219,-1.45628c0,0 2.52018,-4.64138 8.97997,-4.63483c5.91772,0.006 11.97347,4.84826 11.91829,11.95949c-0.02474,3.18804 -1.10485,5.64832 -3.60222,8.01527c-3.2355,3.06654 -7.29149,3.32052 -7.29149,3.32052c0,0 -2.2994,1.32652 -5.58862,5.90404c-3.42825,4.77102 -4.7366,9.23961 -4.7366,9.23961z" data-paper-data="{&quot;index&quot;:null}" fill="#000000"/></g></g></g></svg>