<svg version="1.1" xmlns="http://www.w3.org/2000/svg" xmlns:xlink="http://www.w3.org/1999/xlink" width="116.89958" height="149.90319" viewBox="0,0,116.89958,149.90319"><g transform="translate(-181.55021,-105.04841)"><g data-paper-data="{&quot;isPaintingLayer&quot;:true}" fill-rule="nonzero" stroke="none" stroke-width="0" stroke-linecap="butt" stroke-linejoin="miter" stroke-miterlimit="10" stroke-dasharray="" stroke-dashoffset="0" style="mix-blend-mode: normal"><path d="M185.78637,218.56545c0,-16.57436 0,-35.98793 0,-44.55801c0,-8.1626 8.46321,-16.58361 16.39562,-16.58361c12.55355,0 55.90344,0 76.0906,0c9.20559,0 16.41005,8.73122 16.41005,16.56919c0,16.41454 0,35.64349 0,44.55801c0,7.4924 -8.73445,16.19322 -16.39562,16.19322c-22.18496,0 -64.33178,0 -76.10503,0c-7.96679,0 -16.39562,-8.16671 -16.39562,-16.17879z" fill="#000000"/><path d="M196.29121,210.07219c0,-13.35295 0,-20.74576 0,-27.65015c0,-6.5761 6.81831,-13.36039 13.20894,-13.36039c10.11362,0 45.03799,0 61.30156,0c7.41638,0 13.22057,7.03422 13.22057,13.34878c0,13.2242 0,20.46828 0,27.65015c0,6.03616 -7.0368,13.04588 -13.20894,13.04588c-17.87306,0 -51.82819,0 -61.31317,0c-6.41836,0 -13.20894,-6.57941 -13.20894,-13.03426z" fill="#f3cb17"/><path d="M196.29121,210.07219c0,-13.35295 0,-20.74576 0,-27.65015c0,-6.5761 6.81831,-13.36039 13.20896,-13.36039c3.18364,0 15.57051,0 15.57051,0v54.04482c0,0 -12.70234,0 -15.57051,0c-6.41836,0 -13.20896,-6.57941 -13.20896,-13.03426z" fill="#50be41"/><path d="M270.96886,223.10645c-2.86817,0 -15.57052,0 -15.57052,0v-54.04482c0,0 12.38687,0 15.57052,0c6.66556,0 13.20894,6.50939 13.20894,13.36039c0,6.90439 0,14.2972 0,27.65015c0,6.45485 -6.79059,13.03426 -13.20894,13.03426z" data-paper-data="{&quot;index&quot;:null}" fill="#4b88db"/><path d="M200.77218,244.59331c0.05963,-6.49139 0,-13.81995 0,-13.81995h29.27955c0,0 -0.0003,12.22105 0,18.34851c0.00041,8.39479 -29.39852,8.42138 -29.27955,-4.52856z" fill="#000000"/><path d="M250.22172,249.12189c0.0003,-6.12746 0,-18.34851 0,-18.34851h29.27955c0,0 -0.05963,7.32856 0,13.81995c0.11896,12.94995 -29.27996,12.92337 -29.27955,4.52856z" data-paper-data="{&quot;index&quot;:null}" fill="#000000"/><path d="M213.64207,163.1831c0,0 -1.97872,-6.75825 -7.16359,-13.97389c-4.97458,-6.92301 -8.45217,-8.92921 -8.45217,-8.92921c0,0 -6.13425,-0.38412 -11.02758,-5.02192c-3.77698,-3.57975 -5.41055,-7.30067 -5.44796,-12.12221c-0.08345,-10.75497 9.0752,-18.07835 18.0251,-18.08741c9.76972,-0.00991 13.58122,7.00967 13.58122,7.00967c0,0 -1.31378,1.1573 -2.37776,2.20246c-1.24511,1.2231 -2.61937,2.7401 -2.61937,2.7401l7.86984,8.83827c0,0 -0.12007,2.44727 -1.70864,5.27414c-1.34078,2.38593 -4.06252,4.48219 -4.06252,4.48219l13.79392,27.58784z" fill="#000000"/><g fill="#50be41"><path d="M245.03382,146.5299c0,2.87278 -2.32885,5.20164 -5.20164,5.20164c-2.87278,0 -5.20164,-2.32885 -5.20164,-5.20164c0,-2.87278 2.32885,-5.20164 5.20164,-5.20164c2.87278,0 5.20164,2.32885 5.20164,5.20164z"/><path d="M230.28267,137.84996l-5.69176,-6.34915c0,0 4.58703,-6.64075 15.17804,-6.55225c10.59101,0.08852 15.17803,6.90497 15.17803,6.90497l-6.26093,5.99643c0,0 -2.18392,-4.13519 -8.72737,-4.24613c-6.54345,-0.11093 -9.676,4.24613 -9.676,4.24613z"/><path d="M219.60694,124.94864l-6.96873,-7.83991c0,0 10.23114,-12.01733 27.56363,-12.00691c16.75547,0.01007 26.80471,12.59003 26.80471,12.59003l-7.07746,7.2568c0,0 -5.39045,-9.21377 -19.72725,-9.26711c-14.33877,-0.05334 -20.5949,9.26711 -20.5949,9.26711z"/></g><path d="M255.94742,163.1831l13.79392,-27.58784c0,0 -2.72174,-2.09626 -4.06252,-4.48219c-1.58857,-2.82685 -1.70862,-5.27414 -1.70862,-5.27414l7.86984,-8.83827c0,0 -1.37426,-1.517 -2.61937,-2.7401c-1.06397,-1.04517 -2.37776,-2.20246 -2.37776,-2.20246c0,0 3.8115,-7.01958 13.58122,-7.00967c8.9499,0.00907 18.10856,7.33246 18.0251,18.08741c-0.03742,4.82156 -1.67096,8.54246 -5.44796,12.12221c-4.89334,4.6378 -11.02758,5.02192 -11.02758,5.02192c0,0 -3.47759,2.00622 -8.45217,8.92921c-5.18485,7.21564 -7.16359,13.97389 -7.16359,13.97389z" data-paper-data="{&quot;index&quot;:null}" fill="#000000"/></g></g></svg>